<svg width="27" height="26" viewBox="0 0 27 26" fill="none" xmlns="http://www.w3.org/2000/svg">
<g clip-path="url(#clip0_1_298)">
<path d="M6.23888 12.262H3.18597C2.76449 12.262 2.42273 12.6037 2.42273 13.0252V25.2366C2.42273 25.6581 2.76444 25.9999 3.18597 25.9999H6.23883C6.66032 25.9999 7.00207 25.6582 7.00207 25.2366V13.0252C7.00207 12.6037 6.66042 12.262 6.23888 12.262Z" fill="white"/>
<path d="M25.3041 14.2852C25.1695 13.1012 24.0635 12.2621 22.8719 12.2621H16.9217C17.4273 11.3566 17.6988 8.79556 17.6867 7.74937C17.6668 6.01763 16.2327 4.62988 14.5009 4.62988H13.8711C13.4492 4.62988 13.1078 4.97123 13.1078 5.39312C13.1078 7.15802 12.4206 10.3436 11.1245 11.6398C10.2522 12.5121 9.5064 12.8282 8.5285 13.317V24.769C10.0257 25.2681 11.9266 26.0001 14.824 26.0001H19.8166C21.4617 26.0001 22.7429 24.4765 22.1055 22.8667C23.0766 22.6021 23.7929 21.7114 23.7929 20.6575C23.7929 20.3601 23.7355 20.0754 23.6319 19.8138C25.2685 19.3679 25.8709 17.3471 24.735 16.0782C25.1523 15.612 25.3825 14.9743 25.3041 14.2852Z" fill="white"/>
</g>
<defs>
<clipPath id="clip0_1_298">
<rect width="26" height="26" fill="white" transform="translate(0.871033)"/>
</clipPath>
</defs>
</svg>
